<svg viewBox="0 0 32 36" fill="none" xmlns="http://www.w3.org/2000/svg" stroke-width="1.5" stroke="currentColor">
<path d="M1 14.6667H31V12.6667C31 9.86645 31 8.46631 30.455 7.39676C29.9757 6.45595 29.2108 5.69104 28.27 5.21167C27.2004 4.66671 25.8003 4.66671 23 4.66671H22.6667H9.33333H9C6.19974 4.66671 4.79961 4.66671 3.73005 5.21167C2.78924 5.69104 2.02433 6.45595 1.54497 7.39676C1 8.46631 1 9.86644 1 12.6667V14.6667Z" fill="#020617"/>
<path d="M31 14.6667H1M31 18.8334V12.6667C31 9.86645 31 8.46631 30.455 7.39676C29.9757 6.45594 29.2108 5.69104 28.27 5.21167C27.2004 4.66671 25.8003 4.66671 23 4.66671H9C6.19974 4.66671 4.79961 4.66671 3.73005 5.21167C2.78924 5.69104 2.02433 6.45594 1.54497 7.39676C1 8.46631 1 9.86644 1 12.6667V26.6667C1 29.467 1 30.8671 1.54497 31.9367C2.02433 32.8775 2.78924 33.6424 3.73005 34.1217C4.79961 34.6667 6.19974 34.6667 9 34.6667H16M22.6667 1.33337V8.00004M9.33333 1.33337V8.00004M20.1667 29.6667L23.5 33L31 25.5" stroke="black" stroke-width="2" stroke-linecap="round" stroke-linejoin="round"/>
</svg>
