<svg viewBox="0 0 20 21" fill="none" xmlns="http://www.w3.org/2000/svg">
<path d="M11.54 0.5L0 2.7V18.28L11.54 20.5V0.5ZM12.3 2.8V5.08H14.64V6.66H12.3V8.18H14.62V9.72H12.3V11.26H14.62V12.8H12.3V14.34H14.62V15.88H12.3V18.2H19.36C19.7 18.2 20 17.88 20 17.52V3.48C20 3.1 19.7 2.8 19.36 2.8H12.3ZM15.38 5.12H18.46V6.66H15.38V5.12ZM2.38 6.6H4.5L5.62 8.96C5.72 9.14 5.8 9.36 5.86 9.6C5.92 9.46 6.02 9.24 6.14 8.94L7.36 6.6H9.3L6.98 10.48L9.38 14.42H7.3L5.96 11.86C5.92 11.78 5.84 11.6 5.8 11.34H5.78C5.74 11.46 5.7 11.64 5.6 11.9L4.26 14.42H2.16L4.64 10.52L2.38 6.6ZM15.38 8.18H18.46V9.72H15.38V8.18ZM15.38 11.26H18.46V12.8H15.38V11.26ZM15.38 14.34H18.46V15.88H15.38V14.34Z" fill="black"/>
</svg>
