<svg width="14" height="14" viewBox="0 0 14 14" fill="none" xmlns="http://www.w3.org/2000/svg">
<g clip-path="url(#clip0_1308_4197)">
<path d="M6.28125 4.2625V7.06223C6.28125 7.24652 6.3559 7.42672 6.48633 7.55715L7.88633 8.95715C8.15977 9.23059 8.60273 9.23059 8.87617 8.95715C9.14961 8.68371 9.14961 8.24074 8.87617 7.96731L7.68125 6.77238V4.2625C7.68125 3.87586 7.36789 3.5625 6.98125 3.5625C6.59461 3.5625 6.28125 3.87586 6.28125 4.2625Z" fill="#2B2B2B"/>
<path d="M1.41216 6.43262C1.70446 3.54895 4.14052 1.39973 6.97525 1.4C7.16501 1.4 7.35696 1.40957 7.55028 1.42926C10.434 1.72156 12.5832 4.15762 12.5829 6.99234C12.5829 7.18211 12.5733 7.37406 12.5536 7.56738C12.2613 10.4511 9.82528 12.6003 6.99056 12.6C6.80079 12.6 6.60884 12.5904 6.41552 12.5707C4.28161 12.3534 2.45915 10.9361 1.72333 8.92117C1.59044 8.55805 1.18876 8.37129 0.825637 8.50391C0.462512 8.63652 0.275754 9.03848 0.408371 9.4016C1.32849 11.9202 3.60622 13.6918 6.27361 13.9636C6.51423 13.9882 6.75349 14.0003 6.99056 14.0003C10.54 14 13.5779 11.3146 13.9465 7.70957C13.9711 7.46895 13.9832 7.22969 13.9832 6.99262C13.9826 3.44285 11.2972 0.404961 7.6922 0.0366406C7.45157 0.0120313 7.21232 0 6.97525 0C3.42575 0.000273438 0.387863 2.6857 0.0192695 6.2907C-0.0198321 6.67516 0.260168 7.01887 0.644621 7.05797C1.02935 7.09707 1.37278 6.81707 1.41216 6.43262ZM1.41571 12.6613V9.86125H4.21544C4.60208 9.86125 4.91544 9.54789 4.91544 9.16125C4.91544 8.77461 4.60208 8.46125 4.21544 8.46125H0.715715C0.531418 8.46125 0.351223 8.5359 0.220793 8.66633C0.0903632 8.79676 0.0157148 8.97695 0.0157148 9.16125V12.661C0.0157148 13.0476 0.329074 13.361 0.715715 13.361C1.10236 13.361 1.41571 13.0476 1.41571 12.6613Z" fill="#2B2B2B"/>
</g>
<defs>
<clipPath id="clip0_1308_4197">
<rect width="14" height="14" fill="white"/>
</clipPath>
</defs>
</svg>
